<svg width="102" height="54" viewBox="0 0 102 54" fill="none" xmlns="http://www.w3.org/2000/svg">
<rect x="1" y="0.5" width="100" height="53" rx="9.5" fill="black" fill-opacity="0.6"/>
<rect x="1" y="0.5" width="100" height="53" rx="9.5" stroke="url(#paint0_linear_6_169)"/>
<path d="M16.9261 23.794V22.2727H24.0938V23.794H21.4219V31H19.598V23.794H16.9261ZM26.2159 31.1236C25.7983 31.1236 25.4261 31.0511 25.0994 30.9062C24.7727 30.7585 24.5142 30.5412 24.3239 30.2543C24.1364 29.9645 24.0426 29.6037 24.0426 29.1719C24.0426 28.8082 24.1094 28.5028 24.2429 28.2557C24.3764 28.0085 24.5582 27.8097 24.7884 27.6591C25.0185 27.5085 25.2798 27.3949 25.5724 27.3182C25.8679 27.2415 26.1776 27.1875 26.5014 27.1562C26.8821 27.1165 27.1889 27.0795 27.4219 27.0455C27.6548 27.0085 27.8239 26.9545 27.929 26.8835C28.0341 26.8125 28.0866 26.7074 28.0866 26.5682V26.5426C28.0866 26.2727 28.0014 26.0639 27.831 25.9162C27.6634 25.7685 27.4247 25.6946 27.1151 25.6946C26.7884 25.6946 26.5284 25.767 26.3352 25.9119C26.142 26.054 26.0142 26.233 25.9517 26.4489L24.2727 26.3125C24.358 25.9148 24.5256 25.571 24.7756 25.2812C25.0256 24.9886 25.348 24.7642 25.7429 24.608C26.1406 24.4489 26.6009 24.3693 27.1236 24.3693C27.4872 24.3693 27.8352 24.4119 28.1676 24.4972C28.5028 24.5824 28.7997 24.7145 29.0582 24.8935C29.3196 25.0724 29.5256 25.3026 29.6761 25.5838C29.8267 25.8622 29.902 26.196 29.902 26.5852V31H28.1804V30.0923H28.1293C28.0241 30.2969 27.8835 30.4773 27.7074 30.6335C27.5312 30.7869 27.3196 30.9077 27.0724 30.9957C26.8253 31.081 26.5398 31.1236 26.2159 31.1236ZM26.7358 29.8707C27.0028 29.8707 27.2386 29.8182 27.4432 29.7131C27.6477 29.6051 27.8082 29.4602 27.9247 29.2784C28.0412 29.0966 28.0994 28.8906 28.0994 28.6605V27.9659C28.0426 28.0028 27.9645 28.0369 27.8651 28.0682C27.7685 28.0966 27.6591 28.1236 27.5369 28.1491C27.4148 28.1719 27.2926 28.1932 27.1705 28.2131C27.0483 28.2301 26.9375 28.2457 26.8381 28.2599C26.625 28.2912 26.4389 28.3409 26.2798 28.4091C26.1207 28.4773 25.9972 28.5696 25.9091 28.6861C25.821 28.7997 25.777 28.9418 25.777 29.1122C25.777 29.3594 25.8665 29.5483 26.0455 29.679C26.2273 29.8068 26.4574 29.8707 26.7358 29.8707ZM31.3104 33.4545V24.4545H33.1001V25.554H33.1811C33.2607 25.3778 33.3757 25.1989 33.5263 25.017C33.6797 24.8324 33.8786 24.679 34.1229 24.5568C34.37 24.4318 34.6768 24.3693 35.0433 24.3693C35.5206 24.3693 35.9609 24.4943 36.3643 24.7443C36.7678 24.9915 37.0902 25.3651 37.3317 25.8651C37.5732 26.3622 37.6939 26.9858 37.6939 27.7358C37.6939 28.4659 37.576 29.0824 37.3402 29.5852C37.1072 30.0852 36.7891 30.4645 36.3857 30.723C35.9851 30.9787 35.5362 31.1065 35.0391 31.1065C34.6868 31.1065 34.3871 31.0483 34.1399 30.9318C33.8956 30.8153 33.6953 30.669 33.5391 30.4929C33.3828 30.3139 33.2635 30.1335 33.1811 29.9517H33.1257V33.4545H31.3104ZM33.0874 27.7273C33.0874 28.1165 33.1413 28.456 33.2493 28.7457C33.3572 29.0355 33.5135 29.2614 33.718 29.4233C33.9226 29.5824 34.1712 29.6619 34.4638 29.6619C34.7592 29.6619 35.0092 29.581 35.2138 29.419C35.4183 29.2543 35.5732 29.027 35.6783 28.7372C35.7862 28.4446 35.8402 28.108 35.8402 27.7273C35.8402 27.3494 35.7876 27.017 35.6825 26.7301C35.5774 26.4432 35.4226 26.2187 35.218 26.0568C35.0135 25.8949 34.7621 25.8139 34.4638 25.8139C34.1683 25.8139 33.9183 25.892 33.7138 26.0483C33.5121 26.2045 33.3572 26.4261 33.2493 26.7131C33.1413 27 33.0874 27.3381 33.0874 27.7273ZM45.163 24.4545V25.8182H41.2212V24.4545H45.163ZM42.1161 22.8864H43.9315V28.9886C43.9315 29.1562 43.957 29.2869 44.0082 29.3807C44.0593 29.4716 44.1303 29.5355 44.2212 29.5724C44.315 29.6094 44.4229 29.6278 44.5451 29.6278C44.6303 29.6278 44.7156 29.6207 44.8008 29.6065C44.886 29.5895 44.9513 29.5767 44.9968 29.5682L45.2823 30.919C45.1914 30.9474 45.0636 30.9801 44.8988 31.017C44.734 31.0568 44.5337 31.081 44.2979 31.0895C43.8604 31.1065 43.4769 31.0483 43.1474 30.9148C42.8207 30.7812 42.5664 30.5739 42.3846 30.2926C42.2028 30.0114 42.1133 29.6562 42.1161 29.2273V22.8864ZM49.2326 31.1278C48.5707 31.1278 47.9982 30.9872 47.5153 30.706C47.0352 30.4219 46.6644 30.027 46.4031 29.5213C46.1417 29.0128 46.011 28.4233 46.011 27.7528C46.011 27.0767 46.1417 26.4858 46.4031 25.9801C46.6644 25.4716 47.0352 25.0767 47.5153 24.7955C47.9982 24.5114 48.5707 24.3693 49.2326 24.3693C49.8945 24.3693 50.4656 24.5114 50.9457 24.7955C51.4286 25.0767 51.8008 25.4716 52.0621 25.9801C52.3235 26.4858 52.4542 27.0767 52.4542 27.7528C52.4542 28.4233 52.3235 29.0128 52.0621 29.5213C51.8008 30.027 51.4286 30.4219 50.9457 30.706C50.4656 30.9872 49.8945 31.1278 49.2326 31.1278ZM49.2411 29.7216C49.5423 29.7216 49.7937 29.6364 49.9954 29.4659C50.1971 29.2926 50.3491 29.0568 50.4513 28.7585C50.5565 28.4602 50.609 28.1207 50.609 27.7401C50.609 27.3594 50.5565 27.0199 50.4513 26.7216C50.3491 26.4233 50.1971 26.1875 49.9954 26.0142C49.7937 25.8409 49.5423 25.7543 49.2411 25.7543C48.9371 25.7543 48.6815 25.8409 48.4741 26.0142C48.2695 26.1875 48.1147 26.4233 48.0096 26.7216C47.9073 27.0199 47.8562 27.3594 47.8562 27.7401C47.8562 28.1207 47.9073 28.4602 48.0096 28.7585C48.1147 29.0568 48.2695 29.2926 48.4741 29.4659C48.6815 29.6364 48.9371 29.7216 49.2411 29.7216ZM61.1804 24.7827C61.1463 24.4389 61 24.1719 60.7415 23.9815C60.483 23.7912 60.1321 23.696 59.6889 23.696C59.3878 23.696 59.1335 23.7386 58.9261 23.8239C58.7188 23.9062 58.5597 24.0213 58.4489 24.169C58.3409 24.3168 58.2869 24.4844 58.2869 24.6719C58.2813 24.8281 58.3139 24.9645 58.3849 25.081C58.4588 25.1974 58.5597 25.2983 58.6875 25.3835C58.8153 25.4659 58.9631 25.5384 59.1307 25.6009C59.2983 25.6605 59.4773 25.7116 59.6676 25.7543L60.4517 25.9418C60.8324 26.027 61.1818 26.1406 61.5 26.2827C61.8182 26.4247 62.0938 26.5994 62.3267 26.8068C62.5597 27.0142 62.7401 27.2585 62.8679 27.5398C62.9986 27.821 63.0653 28.1435 63.0682 28.5071C63.0653 29.0412 62.929 29.5043 62.6591 29.8963C62.392 30.2855 62.0057 30.5881 61.5 30.804C60.9972 31.017 60.3906 31.1236 59.6804 31.1236C58.9759 31.1236 58.3622 31.0156 57.8395 30.7997C57.3196 30.5838 56.9134 30.2642 56.6207 29.8409C56.331 29.4148 56.179 28.8878 56.1648 28.2599H57.9503C57.9702 28.5526 58.054 28.7969 58.2017 28.9929C58.3523 29.1861 58.5526 29.3324 58.8026 29.4318C59.0554 29.5284 59.3409 29.5767 59.6591 29.5767C59.9716 29.5767 60.2429 29.5312 60.473 29.4403C60.706 29.3494 60.8864 29.223 61.0142 29.0611C61.142 28.8991 61.206 28.7131 61.206 28.5028C61.206 28.3068 61.1477 28.142 61.0312 28.0085C60.9176 27.875 60.75 27.7614 60.5284 27.6676C60.3097 27.5739 60.0412 27.4886 59.723 27.4119L58.7727 27.1733C58.0369 26.9943 57.456 26.7145 57.0298 26.3338C56.6037 25.9531 56.392 25.4403 56.3949 24.7955C56.392 24.267 56.5327 23.8054 56.8168 23.4105C57.1037 23.0156 57.4972 22.7074 57.9972 22.4858C58.4972 22.2642 59.0653 22.1534 59.7017 22.1534C60.3494 22.1534 60.9148 22.2642 61.3977 22.4858C61.8835 22.7074 62.2614 23.0156 62.5312 23.4105C62.8011 23.8054 62.9403 24.2628 62.9489 24.7827H61.1804ZM67.7567 24.4545V25.8182H63.815V24.4545H67.7567ZM64.7099 22.8864H66.5252V28.9886C66.5252 29.1562 66.5508 29.2869 66.6019 29.3807C66.6531 29.4716 66.7241 29.5355 66.815 29.5724C66.9087 29.6094 67.0167 29.6278 67.1388 29.6278C67.2241 29.6278 67.3093 29.6207 67.3945 29.6065C67.4798 29.5895 67.5451 29.5767 67.5906 29.5682L67.8761 30.919C67.7852 30.9474 67.6573 30.9801 67.4925 31.017C67.3278 31.0568 67.1275 31.081 66.8917 31.0895C66.4542 31.1065 66.0707 31.0483 65.7411 30.9148C65.4144 30.7812 65.1602 30.5739 64.9783 30.2926C64.7965 30.0114 64.707 29.6562 64.7099 29.2273V22.8864ZM70.8058 31.1236C70.3881 31.1236 70.016 31.0511 69.6893 30.9062C69.3626 30.7585 69.104 30.5412 68.9137 30.2543C68.7262 29.9645 68.6325 29.6037 68.6325 29.1719C68.6325 28.8082 68.6992 28.5028 68.8327 28.2557C68.9663 28.0085 69.1481 27.8097 69.3782 27.6591C69.6083 27.5085 69.8697 27.3949 70.1623 27.3182C70.4577 27.2415 70.7674 27.1875 71.0913 27.1562C71.4719 27.1165 71.7788 27.0795 72.0117 27.0455C72.2447 27.0085 72.4137 26.9545 72.5188 26.8835C72.6239 26.8125 72.6765 26.7074 72.6765 26.5682V26.5426C72.6765 26.2727 72.5913 26.0639 72.4208 25.9162C72.2532 25.7685 72.0146 25.6946 71.7049 25.6946C71.3782 25.6946 71.1183 25.767 70.9251 25.9119C70.7319 26.054 70.604 26.233 70.5415 26.4489L68.8626 26.3125C68.9478 25.9148 69.1154 25.571 69.3654 25.2812C69.6154 24.9886 69.9379 24.7642 70.3327 24.608C70.7305 24.4489 71.1907 24.3693 71.7134 24.3693C72.0771 24.3693 72.4251 24.4119 72.7575 24.4972C73.0927 24.5824 73.3896 24.7145 73.6481 24.8935C73.9094 25.0724 74.1154 25.3026 74.266 25.5838C74.4165 25.8622 74.4918 26.196 74.4918 26.5852V31H72.7702V30.0923H72.7191C72.614 30.2969 72.4734 30.4773 72.2972 30.6335C72.1211 30.7869 71.9094 30.9077 71.6623 30.9957C71.4151 31.081 71.1296 31.1236 70.8058 31.1236ZM71.3256 29.8707C71.5927 29.8707 71.8285 29.8182 72.033 29.7131C72.2376 29.6051 72.3981 29.4602 72.5146 29.2784C72.631 29.0966 72.6893 28.8906 72.6893 28.6605V27.9659C72.6325 28.0028 72.5543 28.0369 72.4549 28.0682C72.3583 28.0966 72.2489 28.1236 72.1268 28.1491C72.0046 28.1719 71.8825 28.1932 71.7603 28.2131C71.6381 28.2301 71.5273 28.2457 71.4279 28.2599C71.2148 28.2912 71.0288 28.3409 70.8697 28.4091C70.7106 28.4773 70.587 28.5696 70.4989 28.6861C70.4109 28.7997 70.3668 28.9418 70.3668 29.1122C70.3668 29.3594 70.4563 29.5483 70.6353 29.679C70.8171 29.8068 71.0472 29.8707 71.3256 29.8707ZM75.9002 31V24.4545H77.6602V25.5966H77.7283C77.8477 25.1903 78.0479 24.8835 78.3292 24.6761C78.6104 24.4659 78.9343 24.3608 79.3008 24.3608C79.3917 24.3608 79.4897 24.3665 79.5948 24.3778C79.6999 24.3892 79.7923 24.4048 79.8718 24.4247V26.0355C79.7866 26.0099 79.6687 25.9872 79.5181 25.9673C79.3675 25.9474 79.2298 25.9375 79.1048 25.9375C78.8377 25.9375 78.5991 25.9957 78.3888 26.1122C78.1815 26.2259 78.0167 26.3849 77.8945 26.5895C77.7752 26.794 77.7156 27.0298 77.7156 27.2969V31H75.9002ZM84.62 24.4545V25.8182H80.6783V24.4545H84.62ZM81.5732 22.8864H83.3885V28.9886C83.3885 29.1562 83.4141 29.2869 83.4652 29.3807C83.5163 29.4716 83.5874 29.5355 83.6783 29.5724C83.772 29.6094 83.88 29.6278 84.0021 29.6278C84.0874 29.6278 84.1726 29.6207 84.2578 29.6065C84.343 29.5895 84.4084 29.5767 84.4538 29.5682L84.7393 30.919C84.6484 30.9474 84.5206 30.9801 84.3558 31.017C84.1911 31.0568 83.9908 31.081 83.755 31.0895C83.3175 31.1065 82.9339 31.0483 82.6044 30.9148C82.2777 30.7812 82.0234 30.5739 81.8416 30.2926C81.6598 30.0114 81.5703 29.6562 81.5732 29.2273V22.8864Z" fill="white"/>
<defs>
<linearGradient id="paint0_linear_6_169" x1="0.5" y1="0" x2="97.8487" y2="62.3798" gradientUnits="userSpaceOnUse">
<stop/>
<stop offset="0.29" stop-opacity="0"/>
<stop offset="0.69" stop-opacity="0.3"/>
<stop offset="1" stop-opacity="0.5"/>
</linearGradient>
</defs>
</svg>
